<svg width="1440" height="1440" viewBox="0 0 1440 1440" fill="none" xmlns="http://www.w3.org/2000/svg">
<rect width="1440" height="1440" fill="#212121"/>
<path d="M527.791 786.825L253.43 634.764L545.936 705.819L332.747 472.811L595.516 626.511L438.523 221.6L658.326 570.322L625.312 236.525L636.843 177L722.775 586.827L1016.98 269.536L785.584 591.802L1185.56 380.275L793.897 662.858L904.589 667.833L1102.97 631.486H1178.95L1230.23 647.991L1094.66 690.952L856.707 730.636L1074.87 808.305L1162.44 871.108L901.311 836.4L1071.54 947.138L1140.96 1026.45L818.658 867.772L1109.53 1178.51L775.692 887.613L879.828 1125.6L907.34 1262.32L712.941 915.649L755.028 1111.67L745.312 1223.46L657.859 922.088L578.424 1116.52L495.829 1231.54L589.78 923.726L411.537 1148.89L346.736 1208.83L533.058 865.43L209 1029.02L238.21 985.3L332.161 933.442L527.791 786.825Z" fill="#FAF9F3"/>
</svg>
