<svg width="1440" height="1440" viewBox="0 0 1440 1440" fill="none" xmlns="http://www.w3.org/2000/svg">
<rect width="1440" height="1440" fill="#212121"/>
<rect width="1440" height="1440" fill="#212121"/>
<rect width="1440" height="1440" fill="#212121"/>
<path d="M664.35 555.653L639.531 240L713.931 563.905L953.579 317.669L775.043 578.831L1089.09 405.289L780.018 626.708L1135.39 618.455L826.321 689.511L1077.5 801.889L818.067 753.952L1054.38 927.494L793.248 795.275L1024.64 1053.1L760.174 818.453L859.335 1114.26L708.955 833.319L743.668 1001.89L730.438 1086.17L665.99 843.211L603.18 1000.19L535.395 1086.17L586.673 868.027L465.971 1026.64L414.751 1064.69L535.395 810.141L304 934.108L315.59 899.4L561.853 735.808L342.049 616.817L571.746 669.669L398.244 477.983L606.458 603.589L490.79 286.297L664.35 555.653Z" fill="#FAF9F3"/>
</svg>
