<svg width="1440" height="1440" viewBox="0 0 1440 1440" fill="none" xmlns="http://www.w3.org/2000/svg">
<rect width="1440" height="1440" fill="#212121"/>
<path d="M572.092 825.405L483.936 1268.3L693.262 878.258L794.647 1034.71L898.198 1169.09L803.428 911.269L1041.44 1063.33L1127.37 1080.95L816.657 803.281C816.657 803.281 1107.52 851.744 1268.44 726.138L878.354 684.289L1105.36 353.77L843.116 631.437L944.5 225.999L777.028 558.742L691.096 85L699.935 525.673L554.472 300.917L472.931 237.003L591.935 521.224L325.302 382.391L585.321 629.154L245.927 505.773L545.633 739.366L171 838.516L572.092 825.288V825.405Z" fill="#FAF9F3"/>
</svg>
