<svg width="1440" height="1440" viewBox="0 0 1440 1440" fill="none" xmlns="http://www.w3.org/2000/svg">
<rect width="1440" height="1440" fill="#212121"/>
<path d="M897.401 714.778L1347 760.412C1347 760.412 1067.77 921.937 841.171 856.966L1194.17 1165.9L1092.28 1146.57L816.538 969.25L928.938 1257.17L702.397 932.382L463.539 1373L558.397 872.696L93 895.514L316.057 814.751L532.086 776.142L189.601 519.866L570.715 653.289L273.884 381.221L593.543 532.176L460.057 216.215L542.599 296.977L707.683 546.227L686.597 67L709.425 82.7919L786.682 577.811L974.595 196.879L862.195 646.263L1174.82 321.473L897.34 714.715L897.401 714.778Z" fill="#FAF9F3"/>
</svg>
