<svg width="1222" height="1273" viewBox="0 0 1222 1273" fill="none" xmlns="http://www.w3.org/2000/svg">
<path d="M783.391 631.002L1221.25 675.455C1221.25 675.455 949.315 832.797 728.63 769.509L1072.41 1070.45L973.182 1051.61L704.64 878.885L814.105 1159.35L593.481 842.972L360.861 1272.18L453.242 784.832L0 807.058L217.231 728.387L427.618 690.778L94.0775 441.138L465.238 571.106L176.159 306.084L487.47 453.13L357.47 145.35L437.857 224.021L598.629 466.817L578.094 0L600.325 15.3829L675.564 497.583L858.569 126.515L749.105 564.262L1053.57 247.883L783.332 630.942L783.391 631.002Z" fill="#FAF9F3"/>
</svg>
