<svg width="1057" height="1124" viewBox="0 0 1057 1124" fill="none" xmlns="http://www.w3.org/2000/svg">
<path d="M329.908 631.003L45.9791 473.661L348.686 547.184L128.062 306.084L399.996 465.121L237.527 46.1488L464.995 406.981L430.83 61.5922L442.764 0L531.692 424.06L836.156 95.7496L596.692 429.208L1010.62 210.334L605.295 502.731L719.847 507.879L925.146 470.269H1003.78L1056.84 487.348L916.543 531.801L670.294 572.862L896.068 653.229L986.692 718.213L716.454 682.299L892.615 796.884L964.461 878.946L630.919 714.761L931.93 1036.29L586.454 735.291L694.222 981.539L722.694 1123.01L521.515 764.301L565.07 967.125L555.015 1082.8L464.512 770.963L382.307 972.152L296.831 1091.16L394.059 772.659L209.6 1005.64L142.54 1067.66L335.359 712.338L0 881.611L30.2283 836.37L127.456 782.712L329.908 631.003Z" fill="#FAF9F3"/>
</svg>
