<svg width="861" height="905" viewBox="0 0 861 905" fill="none" xmlns="http://www.w3.org/2000/svg">
<path d="M372.917 326.614L347.232 0L424.227 335.154L672.232 80.3667L487.47 350.597L812.47 171.029L492.619 400.138L860.387 391.598L540.536 465.121L800.475 581.402L531.994 531.801L776.547 711.369L506.31 574.558L745.774 841.337L472.083 598.541L574.702 904.625L419.077 613.924L455 788.344L441.31 875.554L374.613 624.159L309.614 786.588L239.464 875.554L292.531 649.837L167.619 813.962L114.614 853.328L239.464 589.941L0 718.213L11.9947 682.299L266.846 513.026L39.3756 389.902L277.083 444.591L97.5305 246.248L313.006 376.215L193.304 47.9051L372.917 326.614Z" fill="#FAF9F3"/>
</svg>
